<?xml version="1.0" encoding="UTF-8"?>
<svg xmlns="http://www.w3.org/2000/svg" width="472" height="262" viewBox="0 0 472 262">
  <defs>
    <style>
      .cls-1 {
        fill: #13b9e1;
      }

      .cls-1, .cls-2, .cls-3, .cls-4, .cls-5, .cls-6 {
        stroke-width: 0px;
      }

      .cls-2 {
        fill: #009be2;
      }

      .cls-3 {
        fill: #00c8e8;
      }

      .cls-4 {
        fill: #00beec;
      }

      .cls-5 {
        fill: #0073b8;
      }

      .cls-6 {
        fill: #0090da;
      }
    </style>
  </defs>
  <path class="cls-1" d="m217.17,255.15c-7.19-4.18-12.62-9.98-16.28-17.4s-5.49-15.96-5.49-25.62,1.89-18.4,5.66-25.69c3.78-7.28,9.2-12.9,16.28-16.86,7.08-3.95,15.45-5.93,25.11-5.93s18.41,2.02,25.15,6.07c6.74,4.05,11.93,9.62,15.57,16.72l-16.52,8.02c-2.11-4-5.18-7.31-9.2-9.91-4.02-2.61-8.89-3.91-14.6-3.91s-10.24,1.3-14.39,3.91c-4.16,2.61-7.37,6.28-9.64,11.02-2.27,4.74-3.41,10.26-3.41,16.55s1.06,12,3.17,16.86c2.11,4.85,5.27,8.63,9.47,11.33s9.29,4.04,15.27,4.04c11.28,0,19.69-5.39,25.22-16.18l16.32,8.43c-3.33,7.28-8.39,13.24-15.2,17.86-6.81,4.63-15.59,6.95-26.33,6.95s-18.97-2.09-26.16-6.27h0Z"/>
  <path class="cls-1" d="m354.98,237.15h-37.62l-7.62,22.92h-19.89l34.66-95h23.46l34.52,95h-19.89l-7.62-22.92Zm-4.92-14.9l-9.57-28.72c-.13-.45-1.39-4.56-3.78-12.34l-.47-1.48c-.27.99-.82,2.86-1.65,5.63-.83,2.76-1.72,5.49-2.66,8.19l-9.57,28.72h27.71-.01Z"/>
  <path class="cls-1" d="m393.81,165.07h42.68c7.91,0,14.51,1.28,19.79,3.84s9.21,6.16,11.8,10.79c2.58,4.63,3.88,10.07,3.88,16.32,0,5.8-1.27,11.12-3.81,15.98s-6.41,8.74-11.6,11.67c-5.19,2.92-11.61,4.38-19.25,4.38h-23.6v32.03h-19.89v-95h0Zm40.99,46.25c5.71,0,9.99-1.34,12.84-4.01,2.85-2.67,4.28-6.35,4.28-11.02s-1.48-8.29-4.45-10.72c-2.97-2.43-7.37-3.64-13.21-3.64h-20.56v29.39h21.1Z"/>
  <path class="cls-6" d="m4.14,140.89s-10.91,6.12,2.89,13.99c12.27,7,27.01-.26,27.01-.26l-11.99-15.65-17.91,1.92Z"/>
  <path class="cls-6" d="m281.34,114.93c0,4.97-.25,9.49-.69,13.18-.61,5.01-1.58,8.49-2.8,9.45-.14.11-.28.2-.41.25-34.34,12.35-81.2.2-83.31-.36,0,0-67.5-23.52-121.59-27.72.08-.03.16-.07.24-.1-.18,0-.28.08-.44.09h-.04v-.02l22.17-57.2s2.59-7.76,8.4-16.47c4.91-7.39,12.15-15.46,22.09-20.04,7.58-3.46,16.93-5.57,26.25-6.86,6.04-.84,12.06-1.33,17.57-1.61h.09c8.24-.42,17.18-.82,17.18-.82.87-5.68,6.72-6.38,8.9-6.05,4.98.76,7.63,4.14,6.84,8.45,0,0,35.08,16.42,43.67,23.41,3.99,3.24,20.33,19.43,27.67,35.88,1.72,3.84,3.21,7.98,4.34,12.42,2.73,10.9,3.86,23.52,3.87,34.12Z"/>
  <path class="cls-2" d="m194.12,137.45c-1.17,1.22-22.11,22.72-50.51,36.56-6.49-11.88-31.92-53.93-71.15-64.24.02,0,.05-.02.07-.03,54.09,4.2,121.59,27.72,121.59,27.72h0Z"/>
  <path class="cls-4" d="m143.61,174.01c-10.39,5.06-21.78,9.1-33.57,10.74-6.59.92-13.3,1.08-20.03.26,1.56-19.97,2.21-61.68-17.61-75.21.02,0,.04-.02.06-.03,39.23,10.32,64.65,52.36,71.15,64.24Z"/>
  <path class="cls-3" d="m90.01,185.01c-.9-.11-1.81-.24-2.71-.38-8.98-1.45-17.95-4.72-26.69-10.36-13.79-8.9-46.82-34.27-56.78-33.13h-.09l.13-.02c-1.22.14,18.56-8.85,38.59-17.86l-.17-.06h.31c4.23-1.91,8.48-3.82,12.55-5.64,6.5-2.92,12.52-5.62,17.26-7.75,19.82,13.53,19.17,55.24,17.61,75.21h0Z"/>
  <g>
    <path class="cls-5" d="m.88,224.04c0-6.16-.11-11.45-.43-16.31h8.32l.32,10.26h.43c2.38-7.02,8.1-11.45,14.47-11.45,1.08,0,1.84.11,2.7.32v8.96c-.97-.22-1.94-.32-3.24-.32-6.7,0-11.45,5.08-12.74,12.2-.22,1.3-.43,2.81-.43,4.43v27.86H.88v-35.96Z"/>
    <path class="cls-5" d="m64.6,260l-.76-6.59h-.32c-2.92,4.1-8.53,7.78-15.98,7.78-10.58,0-15.98-7.45-15.98-15.01,0-12.64,11.23-19.55,31.43-19.44v-1.08c0-4.32-1.19-12.1-11.88-12.1-4.86,0-9.94,1.51-13.61,3.89l-2.16-6.26c4.32-2.81,10.58-4.64,17.17-4.64,15.98,0,19.87,10.91,19.87,21.38v19.55c0,4.54.22,8.96.86,12.53h-8.64Zm-1.4-26.68c-10.37-.22-22.14,1.62-22.14,11.77,0,6.16,4.1,9.07,8.96,9.07,6.8,0,11.12-4.32,12.64-8.75.32-.97.54-2.05.54-3.02v-9.07Z"/>
    <path class="cls-5" d="m124.98,258.06c-2.48,1.3-7.99,3.02-15.01,3.02-15.77,0-26.03-10.69-26.03-26.68s11.02-27.76,28.08-27.76c5.62,0,10.58,1.4,13.18,2.7l-2.16,7.34c-2.27-1.3-5.83-2.48-11.02-2.48-11.99,0-18.47,8.86-18.47,19.76,0,12.1,7.78,19.55,18.14,19.55,5.4,0,8.96-1.4,11.66-2.59l1.62,7.13Z"/>
    <path class="cls-5" d="m140.74,235.59c.22,12.85,8.42,18.14,17.93,18.14,6.8,0,10.91-1.19,14.47-2.7l1.62,6.8c-3.35,1.51-9.07,3.24-17.39,3.24-16.09,0-25.7-10.58-25.7-26.35s9.29-28.19,24.52-28.19c17.06,0,21.6,15.01,21.6,24.62,0,1.94-.22,3.46-.32,4.43h-36.72Zm27.87-6.8c.11-6.05-2.48-15.44-13.18-15.44-9.61,0-13.82,8.86-14.58,15.44h27.76Z"/>
  </g>
</svg>