<svg xmlns="http://www.w3.org/2000/svg" viewBox="0 0 702 63.6"><style>.st0{fill-rule:evenodd;clip-rule:evenodd}.st0,.st1{fill:#fff}</style><g id="Vordergrund"><path class="st0" d="M584.4 41.1l7.2-18.5C598.6 4.4 610.5.1 627.7.1h50.8l-6.2 16h-44.1c-10 0-13.8 4.7-16.7 12.4l-2.6 6.7c-3.5 9-2.9 12.4 6.1 12.4h45.1l-6.2 16h-50.8c-17.2 0-25.8-4.3-18.7-22.5z"/><path class="st1" d="M408.2.5L402 16.6h28.9l-18 46.7h23.7l18-46.7h28.8L489.6.5zM574.1 16l6-15.6h-74.5l-18.2 47.2-3 7.8v.1l-3 7.6H556l6-15.6h-52.2l3.1-8h52.2l6-15.6h-52.2l3.1-8 52.1.1zM166.4 4.4c-.5-2.6-2.2-3.9-4.9-3.9h-16.6c-2.7 0-5.6 1.4-8 4L82.3 63.3h26.8l37.3-42.7c1.7 12.2 3.3 22.8 4.4 29.6 2 13.1 2 13.1 2.3 13.1H176l-9.6-58.9zM375.8 4.4c-.5-2.6-2.2-3.9-4.9-3.9h-16.6c-2.7 0-5.6 1.4-8 4l-54.6 58.8h26.8l37.3-42.7c1.7 12.2 3.3 22.8 4.4 29.6 2 13.1 2 13.1 2.3 13.1h22.9l-9.6-58.9zM278 .5l-15.3 44.8-16.9-41.7c-.6-1.4-1.9-3.1-4.9-3.1h-27l-24.3 62.8H212l15.3-44.8 18.1 44.6.1.2h30.6L300.4.5H278zM0 63.3h23.1l8-20.7h49.8l6.2-16.3H14.3zM31.9.5C27.6.5 23 3.8 21.4 8l-3.6 9.4h77.5L101.8.5H31.9zM693.9 16.2c-4.5 0-8.1-3.6-8.1-8.1s3.6-8.1 8.1-8.1 8.1 3.6 8.1 8.1-3.6 8.1-8.1 8.1zm0-14.4c-3.5 0-6.3 2.8-6.3 6.3s2.8 6.3 6.3 6.3 6.3-2.8 6.3-6.3-2.8-6.3-6.3-6.3z"/><path class="st0" d="M692.8 7.8l.8-2h1.5c.7 0 .8.2.5.9-.3.8-.4 1.2-1.3 1.2h-1.5zm-3.5 3.8h2l.8-2h1.5c.6 0 .7.4.4.9l-.4 1h2l.6-1.5c.3-.8 0-1.3-.8-1.3v-.1c1.6-.3 1.8-1.1 2.3-2.3.8-1.9.1-2.2-1.7-2.3h-3.9l-2.8 7.6z"/></g></svg>