<svg xmlns="http://www.w3.org/2000/svg" width="699.945" height="191.004">
  <path style="fill:#fff" d="M47.505 0c-2.854.088-4.984 1.267-5.719 3.375l-17.5 49.47c-.273.88-1.179 5.152 2.157 5.187h106.62c2.853-.088 4.953-1.299 5.687-3.407l17.5-49.438c.274-.88 1.21-5.152-2.125-5.187zM187.897 0c-2.854.088-4.984 1.267-5.719 3.375l-17.5 49.47c-.273.88-1.179 5.152 2.157 5.187h106.62c2.853-.088 4.953-1.299 5.687-3.407l17.5-49.438c.274-.88 1.21-5.152-2.125-5.187z"/>
  <path style="fill:#fff" transform="translate(31.486 -433.328)" d="M458.21 614.147c0-5.381 3.267-9.994 11.53-9.994 8.457 0 11.532 4.613 11.532 9.994 0 5.381-3.267 9.993-11.531 9.993-8.264 0-11.531-4.612-11.531-9.993zm4.228 0c-.192 4.036 3.075 7.495 7.11 7.495 4.037.192 7.496-3.075 7.496-7.11.192-4.037-3.075-7.496-7.11-7.496h-.193c-3.652-.384-6.919 2.306-7.303 5.958zm-90.903 1.345V604.73h4.228v10.762c0 2.69 0 5.766 5.573 5.766s5.573-3.267 5.573-5.766V604.73h4.036v10.762c0 3.075-.192 8.648-9.61 8.648-9.416 0-9.8-5.573-9.8-8.648zm-67.265 2.114h4.42c.192 2.499 2.306 3.652 5.766 3.652 2.498 0 4.804-.769 4.804-2.883 0-4.612-14.606-.577-14.606-8.456 0-4.228 4.036-5.958 8.649-5.958 3.075 0 9.032.577 9.609 5.958h-4.42c-.193-1.538-1.538-3.075-4.997-3.075-2.69 0-4.613.769-4.613 2.69 0 4.42 14.606.193 14.606 8.264 0 4.997-5.189 6.15-9.417 6.15-6.918.192-9.801-2.498-9.801-6.342zm-35.746-3.46c0-5.38 3.459-9.993 11.53-9.993 5.958 0 9.802 2.883 10.186 6.727h-4.42c-.96-2.499-3.267-4.036-5.958-3.652-5.189 0-7.11 3.075-7.11 7.111-.385 3.46 2.306 6.534 5.765 6.919h1.153c4.228 0 6.15-1.922 6.919-4.997h-5.573v-2.883h9.801v10.378h-2.883v-2.498c-1.922 1.922-4.804 3.075-7.495 3.075-8.456-.193-11.723-4.805-11.915-10.186zm281.55 9.994c19.219-43.818 47.085-83.6 81.87-116.656h-61.498l7.88-25.368h90.134l-7.111 22.486c-34.593 33.824-63.421 78.603-80.91 119.538zm-49.584-.384v-2.883c0-2.69-.384-4.612-3.459-4.612h-7.11v7.495h-4.229V604.73h12.492c4.997 0 6.727 2.306 6.727 5.189.192 2.114-1.153 4.036-3.267 4.612 2.306.385 2.882 2.499 2.882 5.19v4.035zm-10.57-10.57h7.111c2.306 0 3.46-.577 3.46-2.69 0-1.922-1.346-2.691-3.46-2.691h-7.11zm-44.971 10.57v-15.951h-7.303v-2.883h19.026v2.883h-7.495v15.951zm-11.531 0-2.114-4.612h-9.225l-2.114 4.612h-4.42l8.84-19.026h4.997l8.84 19.026zm-10.186-7.687h6.727l-3.46-8.072zm-26.33 7.687V604.73h4.229v15.951h11.915v3.075zm-34.977 0 .192-15.759-7.303 15.76h-3.459l-7.303-15.76.192 15.76h-3.843V604.73h5.957l6.919 14.798 6.919-14.798h5.957v19.026zm-32.863 0V604.73h4.228v19.026zm-69.956 0-11.915-14.222v14.222h-4.036V604.73h4.805l11.723 14.222V604.73h4.036v19.026zm-26.521 0V604.73h4.228v19.026zm-16.528 0-8.84-19.026h4.612l6.534 15.182 6.342-15.182h4.42l-8.648 19.026zm-15.951 0V604.73h4.228v19.026zm-9.417 0v-2.883c0-2.69-.385-4.612-3.46-4.612h-7.11v7.495h-4.228V604.73h12.492c4.996 0 6.726 2.306 6.726 5.189.192 2.114-1.153 4.036-3.267 4.612 2.306.385 2.883 2.499 2.883 5.19v4.035zm-10.57-10.57h7.11c2.307 0 3.46-.577 3.46-2.69 0-1.922-1.346-2.691-3.46-2.691h-7.11zm-28.828 10.57V604.73h10.57c7.687 0 9.61 4.228 9.61 9.61 0 4.035-1.923 9.224-8.649 9.224h-11.531zm4.036-3.075h5.765c3.075 0 6.15-.96 6.15-6.534 0-6.15-4.036-6.534-6.342-6.534h-5.573zm-32.672 3.075V604.73h4.228v15.951H138.8v3.075zm-8.264 0-2.114-4.612h-9.224l-2.114 4.612h-4.42l8.84-19.026h4.997l8.84 19.026zm-10.185-7.687h6.726l-3.267-8.072zm-28.444 7.687V604.73h17.105v2.883H79.798v4.804H92.29v2.883H79.798v5.381H93.06v2.883zm-9.801 0v-2.883c0-2.69-.384-4.612-3.46-4.612h-7.11v7.495h-4.228V604.73h12.492c4.997 0 6.726 2.306 6.726 5.189.192 2.114-1.153 4.036-3.267 4.612 2.306.385 2.883 2.499 2.883 5.19v4.035zm-10.378-10.57h7.11c2.307 0 3.46-.577 3.46-2.69 0-1.922-1.345-2.691-3.46-2.691h-7.11zm-35.939 10.57V604.73H36.75v2.883H23.68v4.804h12.492v2.883H23.68v5.381h13.261v2.883zm-9.993 0v-8.648h-12.3v8.648h-4.228V604.73h4.228v7.303h12.3v-7.303h4.228v19.026zm-31.518 0v-15.951h-7.496v-2.883h19.027v2.883h-7.496v15.951zm494.106-66.304c6.342-20.563 12.877-33.632 32.287-33.632 20.756 0 17.105 15.76 11.531 33.632-5.573 18.066-11.53 33.633-32.287 33.633-19.218.192-17.873-13.069-11.53-33.633zm15.183 0c-5.381 17.874-6.342 23.447-.577 23.447 5.958 0 8.649-5.766 14.03-23.447 5.38-17.68 6.342-23.638.384-23.638-5.765 0-8.456 5.765-13.837 23.638zm-133.76 16.72 1.345-4.228h14.221l-.768 2.307c-1.538 4.996-1.346 8.648 3.843 8.648s7.88-4.036 9.033-7.687c4.228-14.03-24.984-6.15-17.489-30.366 3.075-10.378 11.147-19.026 26.33-19.026 14.605 0 17.488 7.687 14.413 17.681l-.384 1.538h-14.222c.961-2.114 1.153-4.613.769-6.92-.384-1.537-1.537-2.305-3.844-2.305-3.651 0-6.534 2.306-8.071 6.918-4.229 13.453 24.791 6.727 17.68 29.597-4.42 14.798-14.221 20.564-27.674 20.564-10.57.384-19.41-3.075-15.183-16.72zm-380.91-15.374c6.534-21.333 12.107-34.978 32.863-34.978 19.026 0 15.567 13.645 13.26 20.948H4.655c1.345-4.228 2.883-10.762-2.498-10.762-5.958 0-8.649 6.342-14.03 23.639-5.381 17.68-6.342 23.446-.384 23.446 4.997 0 8.072-4.804 10.954-13.645l.577-2.114h-6.727l3.075-10.186h20.564l-10.57 34.786h-10.57l1.922-6.15h-.193c-3.651 4.997-9.609 7.88-15.759 7.495-15.567 0-14.414-12.108-8.264-32.48zm262.524 9.609 13.26-43.434h14.606l-14.606 47.854c-1.537 4.997-.576 8.072 3.46 8.072 4.035 0 6.726-3.075 8.264-8.072l14.606-47.854h14.798l-13.26 43.434c-3.845 12.684-10.379 22.678-27.483 22.678-17.105 0-17.49-9.994-13.645-22.678zm206.598 21.525 15.567-50.545h-.192l-24.984 50.545h-11.34l5.382-50.545h-.192l-15.567 50.545h-13.069l19.988-64.959h21.524l-5.38 42.665h.191l20.564-42.665h21.14l-19.987 64.959zm-114.734 0 19.987-64.959h14.606l-19.795 64.959zm-20.948 0s1.153-5.19 2.882-13.261c2.691-11.531 1.922-13.645-2.69-13.645h-5.573l-8.264 26.906H277.94l19.987-64.959h24.6c12.491 0 14.221 8.072 11.53 16.912-2.882 9.418-8.071 14.03-15.374 15.76v.192c8.84 1.345 7.687 7.303 5.765 16.143-2.69 12.877-3.651 15.76-3.651 15.76zm-1.922-37.669h4.42c5.958 0 8.84-4.612 10.186-8.456 1.537-4.804.769-8.264-4.997-8.264h-4.42zm-107.816 37.669 16.144-52.467h-13.069l3.844-12.3h40.935l-3.843 12.3h-13.069l-16.143 52.467zm-55.349 0 .769-44.78h-.192l-13.645 44.78h-13.069l19.795-64.959h16.912l-.768 42.089h.192l12.876-42.089h13.645l-19.987 64.959zm-45.932 0 1.537-12.3H81.72l-5.958 12.3H60.58l35.746-64.959h18.258l-4.42 64.959zm-7.687-24.216h10.57l3.46-28.827h-.193zM42.13 589.932s1.153-5.19 2.883-13.261c2.69-11.531 1.922-13.645-2.69-13.645h-5.574l-8.264 26.906H13.879l19.987-64.959h24.6c12.492 0 14.221 8.072 11.53 16.912-2.882 9.418-8.071 14.03-15.374 15.76v.192c8.84 1.345 7.687 7.303 5.766 16.143-2.691 12.877-3.46 15.76-3.46 15.76zm-2.114-37.669h4.612c5.958 0 9.033-4.612 10.186-8.456 1.538-4.804.769-8.264-4.997-8.264h-4.42zm487.957-14.606c0-7.11 5.573-12.876 12.684-12.876 7.11 0 12.876 5.573 12.876 12.684s-5.573 12.877-12.684 12.877c-7.11.192-12.876-5.574-12.876-12.685zm2.306 0c0 5.766 4.612 10.57 10.378 10.763 5.766.192 10.57-4.613 10.762-10.378 0-5.766-4.612-10.57-10.378-10.763-5.957-.192-10.762 4.613-10.762 10.378zm13.453 7.303c-.192-.96-.384-1.73-.577-2.69 0-1.153-.192-2.306-.96-3.267-.577-.577-1.346-.577-2.115-.577h-1.921v6.534h-2.307v-14.99h4.805c2.69 0 5.573.769 5.573 4.228 0 1.73-1.345 3.267-3.075 3.46 2.114.384 2.307 1.345 2.499 2.882.192 1.538.384 2.883.96 4.228zm-5.573-8.84h2.498c2.306 0 2.69-.961 2.69-2.114s-.576-1.73-2.306-1.73h-2.882z"/>
</svg>