<?xml version="1.0"?>
<svg xmlns="http://www.w3.org/2000/svg" viewBox="0 0 50 50">
    <path fill="red" d="M 18.84375 2 C 17.17675 2.002 15.6145 2.83275 14.6875 4.21875 L 11.5 9 L 8.5 9 C 7.672 9 7 9.672 7 10.5 C 7 11.328 7.672 12 8.5 12 L 9.5 12 L 9.15625 12.5 C 8.81325 12.962 8.5265 13.466 8.3125 14 L 15 14 L 15 17 L 8.125 17 C 8.375 19.4 8.92 23.535 9 24.125 L 9.125 25 L 9.1875 25 L 9.34375 26.25 C 9.47075 27.256 10.32975 28.008 11.34375 28 L 14 28 C 15.105 28 16 27.105 16 26 L 16 25 L 34 25 L 34 26 C 34 27.105 34.895 28 36 28 L 38.71875 28 C 39.73275 28.008 40.59175 27.256 40.71875 26.25 L 40.84375 25 L 40.875 25 L 41 24.125 C 41.08 23.535 41.625 19.39 41.875 17 L 35 17 L 35 14 L 41.6875 14 C 41.4745 13.477 41.213 12.98425 40.875 12.53125 L 40.53125 12 L 41.5 12 C 42.328 12 43 11.328 43 10.5 C 43 9.672 42.328 9 41.5 9 L 38.5 9 L 35.3125 4.21875 C 34.3855 2.83275 32.82325 2.002 31.15625 2 L 18.84375 2 z M 18.84375 4 L 31.15625 4 C 32.15625 4.001 33.068 4.51275 33.625 5.34375 L 36.75 10 L 13.25 10 L 16.375 5.34375 C 16.932 4.51275 17.84375 4.001 18.84375 4 z M 12 30 C 12 30 16 31.89 16 34.75 C 16 37.09 9 39.60125 9 43.28125 C 9 45.81125 13 48 13 48 L 18 48 C 18 48 12 45.13 12 43.25 C 12 41.25 19 38.67875 19 34.71875 C 19 31.88875 16 30 16 30 L 12 30 z M 35 30 C 35 30 39 31.89 39 34.75 C 39 37.09 32 39.60125 32 43.28125 C 32 45.81125 36 48 36 48 L 41 48 C 41 48 35 45.13 35 43.25 C 35 41.25 42 38.67875 42 34.71875 C 42 31.88875 39 30 39 30 L 35 30 z"/>
</svg>
