<?xml version="1.0"?>
<svg xmlns="http://www.w3.org/2000/svg" width="50" height="50" viewBox="0 0 50 50">
    <path fill="#A9B4BE" d="M 24 3.03125 C 20.178 3.18225 16.572 4.189 13.375 5.875 L 15.375 9.3125 C 15.652 9.7905 15.478 10.4115 15 10.6875 C 14.842 10.7785 14.67 10.8125 14.5 10.8125 C 14.155 10.8125 13.81 10.6325 13.625 10.3125 L 11.65625 6.875 C 8.51825 8.865 5.862 11.5475 3.875 14.6875 L 7.3125 16.625 C 7.7935 16.896 7.9585 17.52 7.6875 18 C 7.5035 18.325 7.1615 18.5 6.8125 18.5 C 6.6455 18.5 6.4685 18.462 6.3125 18.375 L 2.875 16.40625 C 1.2 19.59225 0.18425 23.192 0.03125 27 L 4 27 C 4.552 27 5 27.447 5 28 C 5 28.553 4.552 29 4 29 L 0.03125 29 C 0.17725 32.698 1.1235 36.27925 2.8125 39.53125 L 6.34375 37.625 C 6.82975 37.361 7.4245 37.54625 7.6875 38.03125 C 7.9515 38.51625 7.76625 39.112 7.28125 39.375 L 3.8125 41.28125 C 3.9425 41.48825 4.08275 41.672 4.21875 41.875 C 4.40475 42.152 4.69725 42.34375 5.03125 42.34375 L 12 42.34375 L 12 41 C 12 39.346 13.346 38 15 38 L 35 38 C 36.654 38 38 39.346 38 41 L 38 42.34375 L 44.96875 42.34375 C 45.30275 42.34375 45.59625 42.18325 45.78125 41.90625 C 45.89525 41.73525 46.015 41.547 46.125 41.375 L 42.6875 39.375 C 42.2105 39.096 42.0335 38.476 42.3125 38 C 42.5915 37.522 43.2125 37.345 43.6875 37.625 L 47.125 39.65625 C 48.85 36.37425 49.82075 32.74 49.96875 29 L 46 29 C 45.447 28.999 45 28.553 45 28 C 45 27.447 45.447 27 46 27 L 49.96875 27 C 49.81775 23.186 48.806 19.59825 47.125 16.40625 L 43.6875 18.375 C 43.5315 18.464 43.3555 18.5 43.1875 18.5 C 42.8395 18.5 42.4965 18.323 42.3125 18 C 42.0385 17.521 42.2085 16.899 42.6875 16.625 L 46.125 14.65625 C 44.118 11.48625 41.428 8.8085 38.25 6.8125 L 36.375 10.28125 C 36.194 10.61725 35.857 10.8125 35.5 10.8125 C 35.341 10.8125 35.18225 10.7685 35.03125 10.6875 C 34.54425 10.4265 34.363 9.82975 34.625 9.34375 L 36.5 5.8125 C 33.332 4.1595 29.776 3.18225 26 3.03125 L 26 7 C 26 7.552 25.552 8 25 8 C 24.448 8 24 7.552 24 7 L 24 3.03125 z M 40.71875 18.6875 L 40.9375 19.0625 L 28.90625 28.875 C 28.50325 30.657 26.906 32 25 32 C 22.789 32 21 30.208 21 28 C 21 25.792 22.789 24 25 24 C 25.534 24 26.035 24.1235 26.5 24.3125 L 40.71875 18.6875 z M 15 40 C 14.448 40 14 40.447 14 41 L 14 45 C 14 45.553 14.448 46 15 46 L 35 46 C 35.553 46 36 45.553 36 45 L 36 41 C 36 40.447 35.553 40 35 40 L 15 40 z"/>
</svg>
