<?xml version="1.0"?>
<svg xmlns="http://www.w3.org/2000/svg" viewBox="0 0 50 50">
    <path fill="#A9B4BE" style="text-indent:0;text-align:start;line-height:normal;text-transform:none;block-progression:tb;-inkscape-font-specification:Sans" d="M 25 7 C 14.507 7 6 15.507 6 26 C 6 36.493 14.507 45 25 45 C 35.493 45 44 36.493 44 26 C 44 15.507 35.493 7 25 7 z M 8.34375 9 A 1.0001 1.0001 0 0 0 7.78125 9.3125 C 3.5974197 13.630889 1 19.514834 1 26 C 1 31.493711 2.8590363 36.579556 5.96875 40.625 A 1.0127363 1.0127363 0 1 0 7.5625 39.375 C 4.7102137 35.664444 3 31.044289 3 26 C 3 20.045166 5.3805803 14.649111 9.21875 10.6875 A 1.0001 1.0001 0 0 0 8.34375 9 z M 41.3125 9 A 1.0001 1.0001 0 0 0 40.78125 10.6875 C 44.61942 14.649111 47 20.045166 47 26 C 47 31.044289 45.289786 35.664444 42.4375 39.375 A 1.0127363 1.0127363 0 1 0 44.03125 40.625 C 47.140964 36.579556 49 31.493711 49 26 C 49 19.514834 46.40258 13.630889 42.21875 9.3125 A 1.0001 1.0001 0 0 0 41.3125 9 z M 24 14 L 26 14 C 26.552 14 27 14.448 27 15 L 27 28 C 27 28.552 26.552 29 26 29 L 24 29 C 23.448 29 23 28.552 23 28 L 23 15 C 23 14.448 23.448 14 24 14 z M 24 33 L 26 33 C 26.552 33 27 33.448 27 34 L 27 36 C 27 36.552 26.552 37 26 37 L 24 37 C 23.448 37 23 36.552 23 36 L 23 34 C 23 33.448 23.448 33 24 33 z" overflow="visible" font-family="Sans"/>
</svg>
